<svg xmlns="http://www.w3.org/2000/svg" version="1.1" xmlns:xlink="http://www.w3.org/1999/xlink" xmlns:svgjs="http://svgjs.dev/svgjs" viewBox="0 0 800 800"><defs><linearGradient x1="50%" y1="0%" x2="50%" y2="100%" id="ffflurry-grad" gradientTransform="rotate(270)"><stop stop-color="hsl(238, 82%, 13%)" stop-opacity="1" offset="0%"></stop><stop stop-color="hsl(1.4, 100%, 67%)" stop-opacity="1" offset="45%"></stop><stop stop-color="hsl(167, 52%, 78%)" stop-opacity="1" offset="100%"></stop></linearGradient></defs><rect width="100%" height="100%" fill="#383b53"></rect><g fill="#d1caa1"><rect width="373" height="3" x="550.5" y="419.5" rx="1.5" transform="rotate(45, 737, 421)" opacity="0.18"></rect><rect width="293" height="3" x="153.5" y="539.5" rx="1.5" transform="rotate(45, 300, 541)" opacity="0.14"></rect><rect width="479" height="3" x="-118.5" y="347.5" rx="1.5" transform="rotate(45, 121, 349)" opacity="0.31"></rect><rect width="71" height="3" x="74.5" y="149.5" rx="1.5" transform="rotate(45, 110, 151)" opacity="0.89"></rect><rect width="718" height="3" x="345" y="743.5" rx="1.5" transform="rotate(45, 704, 745)" opacity="0.83"></rect><rect width="312" height="3" x="-66" y="577.5" rx="1.5" transform="rotate(45, 90, 579)" opacity="0.91"></rect><rect width="155" height="3" x="-54.5" y="250.5" rx="1.5" transform="rotate(45, 23, 252)" opacity="0.15"></rect><rect width="182" height="3" x="541" y="177.5" rx="1.5" transform="rotate(45, 632, 179)" opacity="1.00"></rect><rect width="475" height="3" x="418.5" y="591.5" rx="1.5" transform="rotate(45, 656, 593)" opacity="0.63"></rect><rect width="309" height="3" x="524.5" y="31.5" rx="1.5" transform="rotate(45, 679, 33)" opacity="0.10"></rect><rect width="237" height="3" x="256.5" y="35.5" rx="1.5" transform="rotate(45, 375, 37)" opacity="0.70"></rect><rect width="653" height="3" x="-87.5" y="131.5" rx="1.5" transform="rotate(45, 239, 133)" opacity="0.87"></rect><rect width="630" height="3" x="381" y="269.5" rx="1.5" transform="rotate(45, 696, 271)" opacity="0.94"></rect><rect width="185" height="3" x="437.5" y="128.5" rx="1.5" transform="rotate(45, 530, 130)" opacity="0.56"></rect><rect width="585" height="3" x="-213.5" y="670.5" rx="1.5" transform="rotate(45, 79, 672)" opacity="0.85"></rect><rect width="547" height="3" x="178.5" y="639.5" rx="1.5" transform="rotate(45, 452, 641)" opacity="0.74"></rect><rect width="176" height="3" x="-56" y="124.5" rx="1.5" transform="rotate(45, 32, 126)" opacity="0.98"></rect><rect width="385" height="3" x="100.5" y="68.5" rx="1.5" transform="rotate(45, 293, 70)" opacity="0.66"></rect><rect width="616" height="3" x="238" y="384.5" rx="1.5" transform="rotate(45, 546, 386)" opacity="0.35"></rect><rect width="271" height="3" x="24.5" y="235.5" rx="1.5" transform="rotate(45, 160, 237)" opacity="0.56"></rect><rect width="304" height="3" x="620" y="624.5" rx="1.5" transform="rotate(45, 772, 626)" opacity="0.32"></rect><rect width="198" height="3" x="521" y="444.5" rx="1.5" transform="rotate(45, 620, 446)" opacity="0.87"></rect><rect width="304" height="3" x="314" y="743.5" rx="1.5" transform="rotate(45, 466, 745)" opacity="0.31"></rect><rect width="414" height="3" x="484" y="492.5" rx="1.5" transform="rotate(45, 691, 494)" opacity="0.08"></rect><rect width="136" height="3" x="325" y="608.5" rx="1.5" transform="rotate(45, 393, 610)" opacity="0.57"></rect><rect width="782" height="3" x="-118" y="230.5" rx="1.5" transform="rotate(45, 273, 232)" opacity="0.58"></rect><rect width="479" height="3" x="479.5" y="662.5" rx="1.5" transform="rotate(45, 719, 664)" opacity="0.25"></rect><rect width="658" height="3" x="10" y="142.5" rx="1.5" transform="rotate(45, 339, 144)" opacity="0.50"></rect><rect width="483" height="3" x="156.5" y="534.5" rx="1.5" transform="rotate(45, 398, 536)" opacity="0.73"></rect><rect width="339" height="3" x="85.5" y="427.5" rx="1.5" transform="rotate(45, 255, 429)" opacity="0.34"></rect><rect width="445" height="3" x="-141.5" y="280.5" rx="1.5" transform="rotate(45, 81, 282)" opacity="0.19"></rect><rect width="448" height="3" x="164" y="422.5" rx="1.5" transform="rotate(45, 388, 424)" opacity="0.65"></rect><rect width="485" height="3" x="92.5" y="318.5" rx="1.5" transform="rotate(45, 335, 320)" opacity="0.69"></rect><rect width="445" height="3" x="2.5" y="752.5" rx="1.5" transform="rotate(45, 225, 754)" opacity="0.83"></rect><rect width="281" height="3" x="341.5" y="281.5" rx="1.5" transform="rotate(45, 482, 283)" opacity="0.61"></rect><rect width="331" height="3" x="-129.5" y="494.5" rx="1.5" transform="rotate(45, 36, 496)" opacity="0.61"></rect><rect width="290" height="3" x="238" y="742.5" rx="1.5" transform="rotate(45, 383, 744)" opacity="0.85"></rect><rect width="341" height="3" x="273.5" y="67.5" rx="1.5" transform="rotate(45, 444, 69)" opacity="0.29"></rect><rect width="101" height="3" x="687.5" y="159.5" rx="1.5" transform="rotate(45, 738, 161)" opacity="0.87"></rect><rect width="308" height="3" x="-130" y="624.5" rx="1.5" transform="rotate(45, 24, 626)" opacity="0.72"></rect><rect width="327" height="3" x="433.5" y="532.5" rx="1.5" transform="rotate(45, 597, 534)" opacity="0.35"></rect><rect width="350" height="3" x="373" y="649.5" rx="1.5" transform="rotate(45, 548, 651)" opacity="0.92"></rect><rect width="284" height="3" x="540" y="102.5" rx="1.5" transform="rotate(45, 682, 104)" opacity="0.29"></rect><rect width="407" height="3" x="-60.5" y="753.5" rx="1.5" transform="rotate(45, 143, 755)" opacity="0.86"></rect><rect width="122" height="3" x="415" y="463.5" rx="1.5" transform="rotate(45, 476, 465)" opacity="0.07"></rect><rect width="340" height="3" x="58" y="630.5" rx="1.5" transform="rotate(45, 228, 632)" opacity="0.34"></rect><rect width="381" height="3" x="111.5" y="736.5" rx="1.5" transform="rotate(45, 302, 738)" opacity="0.95"></rect><rect width="298" height="3" x="12" y="670.5" rx="1.5" transform="rotate(45, 161, 672)" opacity="0.96"></rect><rect width="105" height="3" x="-3.5" y="752.5" rx="1.5" transform="rotate(45, 49, 754)" opacity="0.99"></rect><rect width="253" height="3" x="67.5" y="34.5" rx="1.5" transform="rotate(45, 194, 36)" opacity="0.61"></rect><rect width="262" height="3" x="33" y="437.5" rx="1.5" transform="rotate(45, 164, 439)" opacity="0.35"></rect><rect width="291" height="3" x="-115.5" y="336.5" rx="1.5" transform="rotate(45, 30, 338)" opacity="0.27"></rect><rect width="142" height="3" x="245" y="422.5" rx="1.5" transform="rotate(45, 316, 424)" opacity="0.33"></rect><rect width="573" height="3" x="27.5" y="636.5" rx="1.5" transform="rotate(45, 314, 638)" opacity="0.25"></rect><rect width="210" height="3" x="470" y="41.5" rx="1.5" transform="rotate(45, 575, 43)" opacity="0.64"></rect><rect width="354" height="3" x="-15" y="111.5" rx="1.5" transform="rotate(45, 162, 113)" opacity="0.54"></rect><rect width="361" height="3" x="262.5" y="367.5" rx="1.5" transform="rotate(45, 443, 369)" opacity="0.73"></rect><rect width="432" height="3" x="358" y="746.5" rx="1.5" transform="rotate(45, 574, 748)" opacity="0.32"></rect><rect width="340" height="3" x="448" y="335.5" rx="1.5" transform="rotate(45, 618, 337)" opacity="0.24"></rect><rect width="454" height="3" x="-48" y="559.5" rx="1.5" transform="rotate(45, 179, 561)" opacity="0.72"></rect><rect width="385" height="3" x="573.5" y="54.5" rx="1.5" transform="rotate(45, 766, 56)" opacity="0.53"></rect><rect width="340" height="3" x="-114" y="410.5" rx="1.5" transform="rotate(45, 56, 412)" opacity="0.75"></rect><rect width="286" height="3" x="626" y="231.5" rx="1.5" transform="rotate(45, 769, 233)" opacity="0.28"></rect><rect width="438" height="3" x="11" y="505.5" rx="1.5" transform="rotate(45, 230, 507)" opacity="0.16"></rect><rect width="233" height="3" x="657.5" y="463.5" rx="1.5" transform="rotate(45, 774, 465)" opacity="0.33"></rect><rect width="475" height="3" x="524.5" y="340.5" rx="1.5" transform="rotate(45, 762, 342)" opacity="0.84"></rect><rect width="207" height="3" x="318.5" y="202.5" rx="1.5" transform="rotate(45, 422, 204)" opacity="0.44"></rect><rect width="45" height="3" x="44.5" y="41.5" rx="1.5" transform="rotate(45, 67, 43)" opacity="0.56"></rect><rect width="130" height="3" x="449" y="541.5" rx="1.5" transform="rotate(45, 514, 543)" opacity="0.84"></rect><rect width="150" height="3" x="681" y="538.5" rx="1.5" transform="rotate(45, 756, 540)" opacity="0.68"></rect><rect width="379" height="3" x="21.5" y="338.5" rx="1.5" transform="rotate(45, 211, 340)" opacity="0.79"></rect><rect width="239" height="3" x="236.5" y="482.5" rx="1.5" transform="rotate(45, 356, 484)" opacity="0.86"></rect><rect width="403" height="3" x="376.5" y="248.5" rx="1.5" transform="rotate(45, 578, 250)" opacity="0.22"></rect><rect width="208" height="3" x="12" y="499.5" rx="1.5" transform="rotate(45, 116, 501)" opacity="0.53"></rect><rect width="66" height="3" x="23" y="200.5" rx="1.5" transform="rotate(45, 56, 202)" opacity="0.20"></rect><rect width="359" height="3" x="502.5" y="370.5" rx="1.5" transform="rotate(45, 682, 372)" opacity="0.50"></rect><rect width="120" height="3" x="236" y="18.5" rx="1.5" transform="rotate(45, 296, 20)" opacity="0.74"></rect></g></svg>